
<svg xmlns="http://www.w3.org/2000/svg" width="326" height="49" viewBox="0 0 326 49" fill="none"><rect x="0.363347" y="0.363347" width="143.885" height="47.9618" rx="6.90359" fill="white"></rect><rect x="0.363347" y="0.363347" width="143.885" height="47.9618" rx="6.90359" stroke="#C2C2C2" stroke-width="0.726694"></rect><path d="M23.5332 21.8513C23.5332 21.8513 22.6066 21.7579 22.6066 22.5796V26.2586H28.6847V27.3604C28.6847 27.3604 28.7032 27.902 28.1288 27.902H22.6066V32.6827H29.2406C29.2406 32.6827 33.2618 32.0664 33.2988 27.902V21.8513H23.5332ZM33.1135 15.9874H21.1427C16.8065 17.0145 16.7139 20.6001 16.7139 20.6001V32.7014H21.3095V21.6832C21.3095 20.7495 22.236 20.5814 22.236 20.5814H33.095L33.1135 15.9874ZM48.9202 29.2279C48.6052 29.4333 48.3643 29.6014 48.1975 29.6947C47.6045 30.0682 47.0486 30.3484 46.5297 30.5725C45.77 30.8899 45.1029 31.0393 44.4914 31.0393C42.4159 31.0393 40.6926 30.4044 39.3213 29.1158C37.9315 27.8273 37.2459 26.2025 37.2459 24.2604C37.2459 22.3742 37.8574 20.7495 39.1175 19.3489C40.359 17.967 41.8785 17.276 43.6575 17.276C44.3987 17.276 45.1955 17.4067 46.0109 17.6682C47.0857 18.0043 47.9381 18.5272 48.6422 19.1808L47.4563 20.5067C46.9559 20.0025 46.2888 19.6477 45.5291 19.4236C44.9546 19.2555 44.3246 19.1621 43.6204 19.1621C42.3789 19.1621 41.3226 19.6664 40.4702 20.6748C39.6363 21.7019 39.2101 22.8971 39.2101 24.3164C39.2101 25.717 39.6919 26.8748 40.6555 27.7899C41.6191 28.705 42.8421 29.1718 44.3246 29.1718C44.9361 29.1718 45.5662 28.9664 46.2147 28.5929C46.7521 28.1821 47.0301 27.9767 47.0301 27.9767V25.0634H43.0089L43.5834 23.2519H48.9202V29.2279ZM61.0207 25.6797C61.0207 27.0803 60.5204 28.2941 59.5383 29.3212C58.5562 30.3484 57.3331 30.8713 55.8692 30.8713C54.5165 30.8713 53.349 30.367 52.3298 29.3586C51.3107 28.3502 50.8103 27.1363 50.8103 25.6983C50.8103 24.279 51.2921 23.0652 52.2557 22.0194C53.2193 20.9736 54.4053 20.4694 55.7766 20.4694C57.3146 20.4694 58.5562 20.9736 59.5383 21.9634C60.5204 22.9345 61.0207 24.1857 61.0207 25.6797ZM59.1491 25.717C59.1491 24.7646 58.8341 23.9616 58.2041 23.308C57.574 22.6357 56.7957 22.3182 55.8507 22.3182C54.9797 22.3182 54.2385 22.6543 53.6085 23.3453C52.997 24.0176 52.6819 24.8019 52.6819 25.6797C52.6819 26.5947 52.997 27.3791 53.6085 28.0327C54.22 28.6863 54.9983 29.0224 55.9248 29.0224C56.7957 29.0224 57.537 28.705 58.167 28.0514C58.8341 27.3791 59.1491 26.5947 59.1491 25.717ZM72.973 25.6797C72.973 27.0803 72.4727 28.2941 71.4906 29.3212C70.5085 30.3484 69.2854 30.8713 67.8215 30.8713C66.4688 30.8713 65.3013 30.367 64.2822 29.3586C63.263 28.3502 62.7626 27.1363 62.7626 25.6983C62.7626 24.279 63.2444 23.0652 64.208 22.0194C65.1716 20.9736 66.3576 20.4694 67.7289 20.4694C69.2669 20.4694 70.5085 20.9736 71.4906 21.9634C72.4727 22.9345 72.973 24.1857 72.973 25.6797ZM71.0829 25.717C71.0829 24.7646 70.7679 23.9616 70.1378 23.308C69.5078 22.6357 68.7295 22.3182 67.7844 22.3182C66.9135 22.3182 66.1723 22.6543 65.5422 23.3453C64.9307 24.0176 64.6157 24.8019 64.6157 25.6797C64.6157 26.5947 64.9307 27.3791 65.5422 28.0327C66.1537 28.6863 66.932 29.0224 67.8586 29.0224C68.7295 29.0224 69.4707 28.705 70.1008 28.0514C70.7679 27.3791 71.0829 26.5947 71.0829 25.717ZM84.0173 30.5911L82.294 30.8526V29.1718L81.9234 29.6014C81.5898 29.9188 81.2192 30.1616 80.83 30.367C80.2371 30.6472 79.607 30.7779 78.9585 30.7779C77.6057 30.7779 76.4568 30.2737 75.5303 29.2839C74.6037 28.2941 74.1219 27.0803 74.1219 25.6983C74.1219 24.2604 74.5852 23.0278 75.5117 22.0194C76.4383 20.9923 77.5501 20.4881 78.9029 20.4881C79.6811 20.4881 80.3483 20.6188 80.9042 20.8616C81.3119 21.0483 81.6454 21.2911 81.9419 21.5899C82.0345 21.7206 82.1272 21.8513 82.2384 21.982V17.5561L84.0729 17.2947L84.0173 30.5911ZM82.4052 25.8104C82.4052 24.8206 82.0716 23.9802 81.4045 23.308C80.7374 22.617 79.9776 22.2808 79.1067 22.2808C78.1431 22.2808 77.3833 22.5983 76.7904 23.2519C76.2344 23.8682 75.9565 24.6339 75.9565 25.5303C75.9565 26.5387 76.253 27.3791 76.8274 28.0327C77.4019 28.6863 78.1246 29.0038 79.0326 29.0038C79.9035 29.0038 80.6818 28.705 81.3674 28.0887C82.0531 27.4724 82.4052 26.7068 82.4052 25.8104ZM93.7274 19.3862H88.5759V22.9158H92.5785V24.7272H88.5759V30.5725L86.5746 30.8713V17.5561H93.3383L93.7274 19.3862ZM97.8598 18.3591L96.6182 19.9278L95.4322 18.3591L96.6738 16.8091L97.8598 18.3591ZM97.4891 30.5911L95.6546 30.8526V20.9923L97.4891 20.7122V30.5911ZM105.791 20.6001L104.92 22.617C104.809 22.5983 104.698 22.5983 104.568 22.5983C104.383 22.5983 104.216 22.617 104.03 22.6357C103.845 22.6543 103.66 22.729 103.456 22.8411C103.067 23.0092 102.733 23.3826 102.455 23.9242C102.14 24.5592 101.974 25.2501 101.974 25.9598V30.5725L100.139 30.8713V20.9923L101.844 20.6748V22.729C102.066 22.3742 102.289 22.0194 102.511 21.6459C102.826 21.2724 103.197 21.0109 103.604 20.8429C103.827 20.7495 104.216 20.6935 104.827 20.6375C105.42 20.6001 105.754 20.5814 105.791 20.6001ZM119.504 30.5911L117.669 30.8526V24.0923C117.669 23.476 117.539 23.0092 117.261 22.729C116.983 22.4489 116.576 22.2995 116.038 22.2995C115.39 22.2995 114.908 22.561 114.574 23.1025C114.352 23.476 114.222 23.8682 114.222 24.2604V30.5538L112.388 30.8899V24.111C112.388 23.5134 112.258 23.0652 111.98 22.7477C111.702 22.4302 111.35 22.2808 110.887 22.2808H110.702C110.053 22.2808 109.59 22.5423 109.293 23.1025C109.071 23.5134 108.96 24.0363 108.96 24.6712V30.5351L107.051 30.8713V20.9549L108.774 20.6561V21.926C108.96 21.6272 109.163 21.3844 109.33 21.2164C109.831 20.7495 110.405 20.5254 111.054 20.5254C111.776 20.5254 112.314 20.6375 112.684 20.8802C112.999 21.0856 113.296 21.4778 113.611 22.0381C114.241 21.0296 115.13 20.5254 116.316 20.5254C117.447 20.5254 118.281 20.8802 118.836 21.6085C119.281 22.2061 119.504 23.0839 119.504 24.223V30.5911ZM127.898 27.6032C127.898 28.5182 127.583 29.2652 126.953 29.8441C126.323 30.4417 125.526 30.7219 124.562 30.7219C123.84 30.7219 123.191 30.5538 122.598 30.2176C122.005 29.8815 121.561 29.4893 121.283 29.0411L122.58 27.8833C122.672 28.0327 122.765 28.1447 122.839 28.2194C123.321 28.7236 123.895 28.9664 124.562 28.9664C125.026 28.9664 125.396 28.8357 125.656 28.5929C125.934 28.3502 126.063 28.014 126.063 27.5658C126.063 27.0616 125.748 26.7254 125.118 26.5387C123.877 26.1652 123.191 25.9411 123.099 25.9038C122.524 25.605 122.116 25.2875 121.857 24.9327C121.561 24.5218 121.412 23.9802 121.412 23.2893C121.412 22.4302 121.727 21.7393 122.339 21.1603C122.95 20.6001 123.692 20.32 124.544 20.32C125.193 20.32 125.786 20.4694 126.341 20.7682C126.897 21.067 127.286 21.3844 127.527 21.7393L126.434 22.9345C126.267 22.7664 126.082 22.617 125.897 22.4863C125.452 22.1688 125.026 22.0194 124.637 22.0194C124.247 22.0194 123.932 22.1128 123.692 22.2808C123.395 22.4863 123.247 22.8037 123.247 23.2146C123.247 23.6067 123.377 23.9055 123.673 24.0923C123.914 24.2417 124.433 24.4098 125.267 24.5965C126.082 24.8019 126.731 25.1381 127.175 25.6236C127.694 26.1465 127.898 26.7815 127.898 27.6032Z" fill="#141414"></path><rect x="161.347" y="0.363347" width="164.107" height="47.9618" rx="6.90359" fill="white"></rect><rect x="161.347" y="0.363347" width="164.107" height="47.9618" rx="6.90359" stroke="#C2C2C2" stroke-width="0.726694"></rect><path d="M184.82 26.7037C183.872 26.7037 183.02 26.5221 182.263 26.1589C181.512 25.7907 180.911 25.2864 180.463 24.6458C180.014 24.0052 179.774 23.2739 179.744 22.4518H182.014C182.069 23.1175 182.364 23.6648 182.899 24.0935C183.433 24.5222 184.074 24.7366 184.82 24.7366C185.416 24.7366 185.943 24.6004 186.402 24.328C186.866 24.0506 187.229 23.6698 187.491 23.1856C187.758 22.7014 187.892 22.1491 187.892 21.5288C187.892 20.8983 187.756 20.3359 187.483 19.8416C187.211 19.3473 186.835 18.959 186.356 18.6765C185.882 18.3941 185.337 18.2503 184.722 18.2453C184.253 18.2453 183.781 18.326 183.307 18.4874C182.833 18.6488 182.45 18.8606 182.157 19.1229L180.016 18.8051L180.886 10.9974H189.405V13.0023H182.831L182.339 17.3374H182.43C182.732 17.0448 183.133 16.8002 183.633 16.6035C184.137 16.4068 184.677 16.3085 185.252 16.3085C186.195 16.3085 187.035 16.5329 187.771 16.9818C188.512 17.4307 189.095 18.0435 189.519 18.8203C189.947 19.5919 190.159 20.4797 190.154 21.4834C190.159 22.4871 189.932 23.3823 189.473 24.1692C189.019 24.956 188.389 25.5764 187.582 26.0303C186.78 26.4792 185.859 26.7037 184.82 26.7037ZM197.85 10.2711L192.857 28.822H190.837L195.83 10.2711H197.85ZM203.857 26.7037C202.909 26.7037 202.057 26.5221 201.3 26.1589C200.549 25.7907 199.949 25.2864 199.5 24.6458C199.051 24.0052 198.811 23.2739 198.781 22.4518H201.051C201.106 23.1175 201.401 23.6648 201.936 24.0935C202.47 24.5222 203.111 24.7366 203.857 24.7366C204.453 24.7366 204.98 24.6004 205.439 24.328C205.903 24.0506 206.266 23.6698 206.528 23.1856C206.795 22.7014 206.929 22.1491 206.929 21.5288C206.929 20.8983 206.793 20.3359 206.521 19.8416C206.248 19.3473 205.872 18.959 205.393 18.6765C204.919 18.3941 204.374 18.2503 203.759 18.2453C203.29 18.2453 202.818 18.326 202.344 18.4874C201.87 18.6488 201.487 18.8606 201.194 19.1229L199.053 18.8051L199.923 10.9974H208.442V13.0023H201.868L201.376 17.3374H201.467C201.769 17.0448 202.17 16.8002 202.67 16.6035C203.174 16.4068 203.714 16.3085 204.289 16.3085C205.232 16.3085 206.072 16.5329 206.808 16.9818C207.549 17.4307 208.132 18.0435 208.556 18.8203C208.984 19.5919 209.196 20.4797 209.191 21.4834C209.196 22.4871 208.969 23.3823 208.51 24.1692C208.056 24.956 207.426 25.5764 206.619 26.0303C205.817 26.4792 204.896 26.7037 203.857 26.7037Z" fill="#141414"></path><path d="M175.497 35.5205C175.619 35.2754 175.969 35.2754 176.09 35.5205L177.085 37.5222C177.133 37.6192 177.226 37.6865 177.333 37.7024L179.544 38.0297C179.815 38.0698 179.923 38.4023 179.727 38.5938L178.131 40.1582C178.053 40.2341 178.018 40.343 178.036 40.4499L178.408 42.6538C178.454 42.9237 178.171 43.1292 177.928 43.0025L175.947 41.9677C175.851 41.9175 175.736 41.9175 175.64 41.9677L173.659 43.0025C173.417 43.1292 173.134 42.9237 173.179 42.6538L173.551 40.4499C173.569 40.343 173.534 40.2341 173.457 40.1582L171.86 38.5938C171.665 38.4023 171.773 38.0698 172.044 38.0297L174.255 37.7024C174.362 37.6865 174.454 37.6192 174.503 37.5222L175.497 35.5205Z" fill="#FCD503"></path><path d="M184.77 35.5205C184.892 35.2754 185.241 35.2754 185.363 35.5205L186.358 37.5222C186.406 37.6192 186.499 37.6865 186.606 37.7024L188.817 38.0297C189.088 38.0698 189.196 38.4023 189 38.5938L187.404 40.1582C187.326 40.2341 187.291 40.343 187.309 40.4499L187.681 42.6538C187.727 42.9237 187.444 43.1292 187.201 43.0025L185.22 41.9677C185.124 41.9175 185.009 41.9175 184.913 41.9677L182.932 43.0025C182.69 43.1292 182.407 42.9237 182.452 42.6538L182.824 40.4499C182.842 40.343 182.807 40.2341 182.73 40.1582L181.133 38.5938C180.938 38.4023 181.046 38.0698 181.316 38.0297L183.527 37.7024C183.635 37.6865 183.727 37.6192 183.776 37.5222L184.77 35.5205Z" fill="#FCD503"></path><path d="M194.043 35.5205C194.165 35.2754 194.514 35.2754 194.636 35.5205L195.631 37.5222C195.679 37.6192 195.772 37.6865 195.879 37.7024L198.09 38.0297C198.361 38.0698 198.469 38.4023 198.273 38.5938L196.677 40.1582C196.599 40.2341 196.564 40.343 196.582 40.4499L196.954 42.6538C196.999 42.9237 196.717 43.1292 196.474 43.0025L194.493 41.9677C194.397 41.9175 194.282 41.9175 194.186 41.9677L192.205 43.0025C191.963 43.1292 191.68 42.9237 191.725 42.6538L192.097 40.4499C192.115 40.343 192.08 40.2341 192.002 40.1582L190.406 38.5938C190.211 38.4023 190.319 38.0698 190.589 38.0297L192.8 37.7024C192.908 37.6865 193 37.6192 193.048 37.5222L194.043 35.5205Z" fill="#FCD503"></path><path d="M203.316 35.5205C203.438 35.2754 203.787 35.2754 203.909 35.5205L204.904 37.5222C204.952 37.6192 205.045 37.6865 205.152 37.7024L207.363 38.0297C207.633 38.0698 207.742 38.4023 207.546 38.5938L205.95 40.1582C205.872 40.2341 205.837 40.343 205.855 40.4499L206.227 42.6538C206.272 42.9237 205.99 43.1292 205.747 43.0025L203.766 41.9677C203.67 41.9175 203.555 41.9175 203.459 41.9677L201.478 43.0025C201.236 43.1292 200.953 42.9237 200.998 42.6538L201.37 40.4499C201.388 40.343 201.353 40.2341 201.275 40.1582L199.679 38.5938C199.484 38.4023 199.592 38.0698 199.862 38.0297L202.073 37.7024C202.181 37.6865 202.273 37.6192 202.321 37.5222L203.316 35.5205Z" fill="#FCD503"></path><path d="M212.593 35.4743C212.718 35.2398 213.053 35.2398 213.178 35.4743L214.232 37.4592C214.28 37.5494 214.367 37.6124 214.467 37.6301L216.681 38.0193C216.942 38.0653 217.046 38.3848 216.862 38.5757L215.3 40.1917C215.229 40.2651 215.196 40.367 215.21 40.4681L215.524 42.6936C215.561 42.9565 215.289 43.1539 215.05 43.0375L213.031 42.0513C212.939 42.0065 212.832 42.0065 212.74 42.0513L210.721 43.0375C210.482 43.1539 210.21 42.9565 210.247 42.6936L210.561 40.4681C210.575 40.367 210.542 40.2651 210.471 40.1917L208.909 38.5757C208.725 38.3848 208.829 38.0653 209.09 38.0193L211.304 37.6301C211.404 37.6124 211.491 37.5494 211.539 37.4592L212.593 35.4743Z" fill="#6A6A6A"></path><mask id="mask0_6597_7762" style="mask-type:alpha" maskUnits="userSpaceOnUse" x="208" y="34" width="6" height="11"><rect x="208.249" y="34.9236" width="5.46442" height="9.27296" fill="#D9D9D9"></rect></mask><g mask="url(#mask0_6597_7762)"><path d="M212.593 35.4743C212.718 35.2398 213.053 35.2398 213.178 35.4743L214.232 37.4592C214.28 37.5494 214.367 37.6124 214.467 37.6301L216.681 38.0193C216.942 38.0653 217.046 38.3848 216.862 38.5757L215.3 40.1917C215.229 40.2651 215.196 40.367 215.21 40.4681L215.524 42.6936C215.561 42.9565 215.289 43.1539 215.05 43.0375L213.031 42.0513C212.939 42.0065 212.832 42.0065 212.74 42.0513L210.721 43.0375C210.482 43.1539 210.21 42.9565 210.247 42.6936L210.561 40.4681C210.575 40.367 210.542 40.2651 210.471 40.1917L208.909 38.5757C208.725 38.3848 208.829 38.0653 209.09 38.0193L211.304 37.6301C211.404 37.6124 211.491 37.5494 211.539 37.4592L212.593 35.4743Z" fill="#FCD503"></path></g><path d="M228.508 25.0435C227.623 25.0435 226.805 24.8832 226.053 24.5625C225.301 24.2418 224.643 23.794 224.079 23.2189C223.515 22.6439 223.073 21.9694 222.752 21.1953C222.442 20.4212 222.287 19.5753 222.287 18.6575C222.287 17.7397 222.437 16.8937 222.735 16.1197C223.045 15.3345 223.476 14.66 224.029 14.096C224.593 13.521 225.251 13.0787 226.003 12.7691C226.755 12.4484 227.573 12.288 228.458 12.288C229.343 12.288 230.133 12.4373 230.83 12.7359C231.538 13.0344 232.135 13.4325 232.621 13.9302C233.108 14.4167 233.456 14.953 233.666 15.5391L231.659 16.5012C231.427 15.8598 231.034 15.3401 230.482 14.942C229.929 14.5439 229.254 14.3448 228.458 14.3448C227.684 14.3448 226.998 14.5273 226.401 14.8922C225.815 15.2571 225.356 15.7603 225.024 16.4016C224.704 17.043 224.543 17.795 224.543 18.6575C224.543 19.52 224.709 20.2775 225.041 20.9299C225.384 21.5713 225.854 22.0744 226.451 22.4393C227.048 22.8043 227.734 22.9867 228.508 22.9867C229.138 22.9867 229.719 22.8651 230.249 22.6218C230.78 22.3675 231.206 22.0136 231.527 21.5602C231.847 21.0958 232.008 20.5484 232.008 19.9181V18.9726L233.036 19.8683H228.458V17.9608H234.263V19.2049C234.263 20.1559 234.103 20.9963 233.782 21.7261C233.462 22.4559 233.025 23.0697 232.472 23.5673C231.93 24.0538 231.316 24.4243 230.631 24.6786C229.945 24.9219 229.237 25.0435 228.508 25.0435ZM240.278 25.0435C239.394 25.0435 238.586 24.839 237.856 24.4298C237.138 24.0207 236.563 23.4622 236.131 22.7545C235.711 22.0468 235.501 21.2395 235.501 20.3328C235.501 19.426 235.711 18.6188 236.131 17.9111C236.563 17.2033 237.138 16.6449 237.856 16.2358C238.575 15.8266 239.382 15.622 240.278 15.622C241.163 15.622 241.965 15.8266 242.683 16.2358C243.402 16.6449 243.972 17.2033 244.392 17.9111C244.823 18.6077 245.039 19.415 245.039 20.3328C245.039 21.2395 244.823 22.0468 244.392 22.7545C243.961 23.4622 243.385 24.0207 242.667 24.4298C241.948 24.839 241.152 25.0435 240.278 25.0435ZM240.278 23.0531C240.765 23.0531 241.19 22.937 241.555 22.7047C241.931 22.4725 242.224 22.1518 242.434 21.7427C242.656 21.3225 242.766 20.8525 242.766 20.3328C242.766 19.802 242.656 19.3376 242.434 18.9395C242.224 18.5303 241.931 18.2096 241.555 17.9774C241.19 17.7341 240.765 17.6125 240.278 17.6125C239.781 17.6125 239.344 17.7341 238.968 17.9774C238.592 18.2096 238.293 18.5303 238.072 18.9395C237.862 19.3376 237.757 19.802 237.757 20.3328C237.757 20.8525 237.862 21.3225 238.072 21.7427C238.293 22.1518 238.592 22.4725 238.968 22.7047C239.344 22.937 239.781 23.0531 240.278 23.0531ZM251.099 25.0435C250.214 25.0435 249.407 24.839 248.677 24.4298C247.958 24.0207 247.383 23.4622 246.952 22.7545C246.532 22.0468 246.322 21.2395 246.322 20.3328C246.322 19.426 246.532 18.6188 246.952 17.9111C247.383 17.2033 247.958 16.6449 248.677 16.2358C249.396 15.8266 250.203 15.622 251.099 15.622C251.983 15.622 252.785 15.8266 253.504 16.2358C254.223 16.6449 254.792 17.2033 255.212 17.9111C255.644 18.6077 255.859 19.415 255.859 20.3328C255.859 21.2395 255.644 22.0468 255.212 22.7545C254.781 23.4622 254.206 24.0207 253.487 24.4298C252.768 24.839 251.972 25.0435 251.099 25.0435ZM251.099 23.0531C251.585 23.0531 252.011 22.937 252.376 22.7047C252.752 22.4725 253.045 22.1518 253.255 21.7427C253.476 21.3225 253.587 20.8525 253.587 20.3328C253.587 19.802 253.476 19.3376 253.255 18.9395C253.045 18.5303 252.752 18.2096 252.376 17.9774C252.011 17.7341 251.585 17.6125 251.099 17.6125C250.601 17.6125 250.164 17.7341 249.788 17.9774C249.412 18.2096 249.114 18.5303 248.893 18.9395C248.682 19.3376 248.577 19.802 248.577 20.3328C248.577 20.8525 248.682 21.3225 248.893 21.7427C249.114 22.1518 249.412 22.4725 249.788 22.7047C250.164 22.937 250.601 23.0531 251.099 23.0531ZM261.886 28.4937C261.211 28.4937 260.587 28.3831 260.012 28.1619C259.437 27.9407 258.939 27.6311 258.519 27.233C258.11 26.846 257.811 26.3871 257.623 25.8563L259.647 25.0933C259.779 25.5135 260.039 25.8508 260.426 26.1051C260.824 26.3705 261.311 26.5032 261.886 26.5032C262.328 26.5032 262.715 26.4203 263.047 26.2544C263.39 26.0885 263.655 25.8452 263.843 25.5246C264.031 25.2149 264.125 24.839 264.125 24.3966V22.3398L264.54 22.8374C264.23 23.3793 263.816 23.7884 263.296 24.0649C262.776 24.3413 262.185 24.4796 261.521 24.4796C260.681 24.4796 259.929 24.286 259.265 23.899C258.602 23.512 258.082 22.9812 257.706 22.3067C257.33 21.6321 257.142 20.8746 257.142 20.0342C257.142 19.1827 257.33 18.4253 257.706 17.7618C258.082 17.0983 258.596 16.5786 259.249 16.2026C259.901 15.8156 260.642 15.622 261.471 15.622C262.146 15.622 262.737 15.7658 263.246 16.0533C263.766 16.3298 264.197 16.7334 264.54 17.2642L264.241 17.8115V15.8211H266.298V24.3966C266.298 25.1818 266.105 25.8839 265.718 26.5032C265.342 27.1224 264.822 27.609 264.158 27.9629C263.506 28.3167 262.749 28.4937 261.886 28.4937ZM261.786 22.4725C262.251 22.4725 262.655 22.373 262.997 22.174C263.351 21.9639 263.628 21.6763 263.827 21.3114C264.026 20.9465 264.125 20.5263 264.125 20.0508C264.125 19.5864 264.02 19.1717 263.81 18.8068C263.611 18.4308 263.335 18.1378 262.981 17.9277C262.638 17.7175 262.24 17.6125 261.786 17.6125C261.333 17.6125 260.924 17.7175 260.559 17.9277C260.194 18.1378 259.907 18.4308 259.697 18.8068C259.497 19.1717 259.398 19.5864 259.398 20.0508C259.398 20.5152 259.497 20.9299 259.697 21.2948C259.907 21.6598 260.189 21.9473 260.542 22.1574C260.907 22.3675 261.322 22.4725 261.786 22.4725ZM268.328 24.8445V12.288H270.5V24.8445H268.328ZM276.786 25.0435C275.857 25.0435 275.045 24.8334 274.348 24.4132C273.651 23.993 273.109 23.4235 272.722 22.7047C272.335 21.986 272.142 21.1898 272.142 20.3162C272.142 19.4094 272.335 18.6077 272.722 17.9111C273.12 17.2033 273.657 16.6449 274.331 16.2358C275.017 15.8266 275.78 15.622 276.62 15.622C277.328 15.622 277.947 15.7381 278.478 15.9704C279.02 16.2026 279.479 16.5233 279.855 16.9324C280.231 17.3416 280.518 17.8115 280.717 18.3423C280.916 18.8621 281.016 19.426 281.016 20.0342C281.016 20.189 281.005 20.3494 280.983 20.5152C280.972 20.6811 280.944 20.8249 280.9 20.9465H273.933V19.2878H279.672L278.644 20.0674C278.743 19.5587 278.716 19.1053 278.561 18.7072C278.417 18.3092 278.174 17.994 277.831 17.7618C277.499 17.5296 277.096 17.4134 276.62 17.4134C276.167 17.4134 275.763 17.5296 275.409 17.7618C275.056 17.9829 274.785 18.3147 274.597 18.757C274.42 19.1883 274.353 19.7135 274.398 20.3328C274.353 20.8857 274.425 21.3778 274.613 21.809C274.812 22.2292 275.1 22.5555 275.476 22.7877C275.863 23.0199 276.305 23.136 276.803 23.136C277.3 23.136 277.721 23.031 278.063 22.8209C278.417 22.6107 278.694 22.3288 278.893 21.9749L280.651 22.8374C280.474 23.2687 280.198 23.6502 279.822 23.982C279.446 24.3137 278.998 24.5736 278.478 24.7615C277.969 24.9495 277.405 25.0435 276.786 25.0435Z" fill="#141414"></path><path d="M225.306 38.944C225.024 38.944 224.772 38.8915 224.551 38.7864C224.33 38.6758 224.156 38.5266 224.029 38.3386C223.901 38.1506 223.838 37.935 223.838 37.6917C223.838 37.4595 223.888 37.2494 223.987 37.0614C224.087 36.8678 224.241 36.7047 224.452 36.572C224.662 36.4393 224.93 36.3454 225.256 36.2901L226.998 35.9998V36.5638L225.405 36.8291C225.085 36.8844 224.852 36.9867 224.709 37.136C224.57 37.2853 224.501 37.4622 224.501 37.6668C224.501 37.8658 224.579 38.0345 224.734 38.1727C224.894 38.3109 225.098 38.38 225.347 38.38C225.651 38.38 225.917 38.3165 226.143 38.1893C226.37 38.0566 226.547 37.8797 226.674 37.6585C226.801 37.4373 226.865 37.1913 226.865 36.9204V35.7925C226.865 35.5271 226.768 35.3114 226.575 35.1456C226.381 34.9797 226.13 34.8967 225.82 34.8967C225.549 34.8967 225.311 34.9659 225.107 35.1041C224.902 35.2368 224.75 35.4109 224.651 35.6266L224.087 35.3197C224.17 35.1317 224.3 34.9603 224.476 34.8055C224.659 34.6507 224.866 34.5291 225.098 34.4406C225.331 34.3466 225.571 34.2996 225.82 34.2996C226.146 34.2996 226.434 34.3632 226.683 34.4904C226.937 34.6175 227.133 34.7945 227.271 35.0211C227.415 35.2423 227.487 35.4994 227.487 35.7925V38.8445H226.865V37.9571L226.956 38.0483C226.879 38.2142 226.757 38.3662 226.591 38.5044C226.431 38.6371 226.24 38.745 226.019 38.8279C225.803 38.9053 225.566 38.944 225.306 38.944ZM229.871 38.8445L228.138 34.3991H228.835L230.294 38.2971H230.07L231.538 34.3991H232.243L230.493 38.8445H229.871ZM234.913 38.944C234.498 38.944 234.122 38.8445 233.785 38.6454C233.453 38.4409 233.19 38.1616 232.997 37.8078C232.803 37.4539 232.706 37.0531 232.706 36.6052C232.706 36.1574 232.8 35.762 232.988 35.4192C233.176 35.0709 233.431 34.7972 233.751 34.5982C234.078 34.3991 234.443 34.2996 234.846 34.2996C235.167 34.2996 235.452 34.3604 235.7 34.4821C235.955 34.5982 236.17 34.7585 236.347 34.9631C236.524 35.1621 236.66 35.3888 236.754 35.6432C236.848 35.892 236.895 36.1491 236.895 36.4145C236.895 36.4698 236.892 36.5333 236.886 36.6052C236.881 36.6716 236.873 36.7407 236.862 36.8126H233.105V36.232H236.505L236.206 36.4808C236.256 36.1767 236.22 35.9058 236.098 35.668C235.982 35.4248 235.814 35.234 235.593 35.0958C235.371 34.952 235.123 34.8802 234.846 34.8802C234.57 34.8802 234.313 34.952 234.075 35.0958C233.843 35.2395 233.66 35.4414 233.527 35.7012C233.395 35.9556 233.342 36.2597 233.37 36.6135C233.342 36.9674 233.398 37.277 233.536 37.5424C233.68 37.8023 233.873 38.0041 234.116 38.1478C234.365 38.2916 234.631 38.3635 234.913 38.3635C235.239 38.3635 235.512 38.286 235.734 38.1312C235.955 37.9764 236.134 37.7829 236.273 37.5507L236.803 37.8327C236.715 38.0317 236.58 38.2169 236.397 38.3883C236.215 38.5542 235.996 38.6897 235.742 38.7947C235.493 38.8942 235.217 38.944 234.913 38.944ZM237.991 38.8445V34.3991H238.613V35.129L238.53 35.0211C238.636 34.811 238.793 34.6452 239.003 34.5235C239.219 34.4019 239.479 34.3411 239.783 34.3411H240.065V34.9631H239.675C239.354 34.9631 239.097 35.0626 238.904 35.2617C238.71 35.4607 238.613 35.7427 238.613 36.1076V38.8445H237.991ZM242.079 38.944C241.797 38.944 241.546 38.8915 241.324 38.7864C241.103 38.6758 240.929 38.5266 240.802 38.3386C240.675 38.1506 240.611 37.935 240.611 37.6917C240.611 37.4595 240.661 37.2494 240.761 37.0614C240.86 36.8678 241.015 36.7047 241.225 36.572C241.435 36.4393 241.703 36.3454 242.029 36.2901L243.771 35.9998V36.5638L242.179 36.8291C241.858 36.8844 241.626 36.9867 241.482 37.136C241.344 37.2853 241.275 37.4622 241.275 37.6668C241.275 37.8658 241.352 38.0345 241.507 38.1727C241.667 38.3109 241.872 38.38 242.121 38.38C242.425 38.38 242.69 38.3165 242.917 38.1893C243.144 38.0566 243.32 37.8797 243.448 37.6585C243.575 37.4373 243.638 37.1913 243.638 36.9204V35.7925C243.638 35.5271 243.542 35.3114 243.348 35.1456C243.155 34.9797 242.903 34.8967 242.593 34.8967C242.322 34.8967 242.085 34.9659 241.88 35.1041C241.676 35.2368 241.524 35.4109 241.424 35.6266L240.86 35.3197C240.943 35.1317 241.073 34.9603 241.25 34.8055C241.432 34.6507 241.64 34.5291 241.872 34.4406C242.104 34.3466 242.345 34.2996 242.593 34.2996C242.92 34.2996 243.207 34.3632 243.456 34.4904C243.71 34.6175 243.907 34.7945 244.045 35.0211C244.189 35.2423 244.26 35.4994 244.26 35.7925V38.8445H243.638V37.9571L243.73 38.0483C243.652 38.2142 243.531 38.3662 243.365 38.5044C243.204 38.6371 243.014 38.745 242.792 38.8279C242.577 38.9053 242.339 38.944 242.079 38.944ZM247.646 40.6691C247.342 40.6691 247.06 40.6221 246.8 40.5281C246.546 40.4341 246.325 40.3041 246.137 40.1383C245.954 39.9779 245.814 39.7899 245.714 39.5743L246.286 39.2675C246.375 39.4776 246.532 39.66 246.759 39.8148C246.986 39.9696 247.276 40.047 247.63 40.047C247.901 40.047 248.15 39.9945 248.376 39.8895C248.603 39.7844 248.785 39.6296 248.924 39.425C249.062 39.2205 249.131 38.9689 249.131 38.6703V37.6834L249.23 37.7746C249.076 38.0953 248.846 38.3441 248.542 38.521C248.238 38.6924 247.906 38.7781 247.547 38.7781C247.132 38.7781 246.759 38.6786 246.427 38.4796C246.095 38.2805 245.833 38.0124 245.639 37.6751C245.451 37.3323 245.357 36.9535 245.357 36.5389C245.357 36.1187 245.451 35.7399 245.639 35.4027C245.833 35.0654 246.093 34.7972 246.419 34.5982C246.751 34.3991 247.127 34.2996 247.547 34.2996C247.906 34.2996 248.232 34.3825 248.525 34.5484C248.824 34.7143 249.059 34.9382 249.23 35.2202L249.131 35.3944V34.3991H249.753V38.6703C249.753 39.0518 249.662 39.3919 249.479 39.6904C249.302 39.9945 249.054 40.2323 248.733 40.4037C248.418 40.5806 248.056 40.6691 247.646 40.6691ZM247.58 38.1561C247.868 38.1561 248.127 38.0842 248.36 37.9405C248.592 37.7912 248.777 37.5949 248.915 37.3516C249.059 37.1028 249.131 36.8319 249.131 36.5389C249.131 36.2458 249.059 35.9777 248.915 35.7344C248.777 35.4856 248.592 35.2893 248.36 35.1456C248.127 34.9963 247.868 34.9216 247.58 34.9216C247.287 34.9216 247.022 34.9963 246.784 35.1456C246.546 35.2893 246.358 35.4828 246.22 35.7261C246.087 35.9694 246.021 36.2403 246.021 36.5389C246.021 36.8319 246.087 37.1028 246.22 37.3516C246.358 37.5949 246.543 37.7912 246.776 37.9405C247.013 38.0842 247.281 38.1561 247.58 38.1561ZM253.055 38.944C252.64 38.944 252.264 38.8445 251.927 38.6454C251.595 38.4409 251.332 38.1616 251.139 37.8078C250.945 37.4539 250.849 37.0531 250.849 36.6052C250.849 36.1574 250.943 35.762 251.131 35.4192C251.319 35.0709 251.573 34.7972 251.894 34.5982C252.22 34.3991 252.585 34.2996 252.988 34.2996C253.309 34.2996 253.594 34.3604 253.843 34.4821C254.097 34.5982 254.313 34.7585 254.489 34.9631C254.666 35.1621 254.802 35.3888 254.896 35.6432C254.99 35.892 255.037 36.1491 255.037 36.4145C255.037 36.4698 255.034 36.5333 255.029 36.6052C255.023 36.6716 255.015 36.7407 255.004 36.8126H251.247V36.232H254.647L254.348 36.4808C254.398 36.1767 254.362 35.9058 254.241 35.668C254.125 35.4248 253.956 35.234 253.735 35.0958C253.514 34.952 253.265 34.8802 252.988 34.8802C252.712 34.8802 252.455 34.952 252.217 35.0958C251.985 35.2395 251.802 35.4414 251.67 35.7012C251.537 35.9556 251.484 36.2597 251.512 36.6135C251.484 36.9674 251.54 37.277 251.678 37.5424C251.822 37.8023 252.015 38.0041 252.259 38.1478C252.507 38.2916 252.773 38.3635 253.055 38.3635C253.381 38.3635 253.655 38.286 253.876 38.1312C254.097 37.9764 254.277 37.7829 254.415 37.5507L254.946 37.8327C254.857 38.0317 254.722 38.2169 254.539 38.3883C254.357 38.5542 254.138 38.6897 253.884 38.7947C253.635 38.8942 253.359 38.944 253.055 38.944ZM257.543 38.8445V34.3991H258.165V35.129L258.082 35.0211C258.187 34.811 258.345 34.6452 258.555 34.5235C258.77 34.4019 259.03 34.3411 259.334 34.3411H259.616V34.9631H259.226C258.906 34.9631 258.649 35.0626 258.455 35.2617C258.262 35.4607 258.165 35.7427 258.165 36.1076V38.8445H257.543ZM261.631 38.944C261.349 38.944 261.097 38.8915 260.876 38.7864C260.655 38.6758 260.481 38.5266 260.353 38.3386C260.226 38.1506 260.163 37.935 260.163 37.6917C260.163 37.4595 260.212 37.2494 260.312 37.0614C260.411 36.8678 260.566 36.7047 260.776 36.572C260.986 36.4393 261.255 36.3454 261.581 36.2901L263.323 35.9998V36.5638L261.73 36.8291C261.409 36.8844 261.177 36.9867 261.033 37.136C260.895 37.2853 260.826 37.4622 260.826 37.6668C260.826 37.8658 260.904 38.0345 261.058 38.1727C261.219 38.3109 261.423 38.38 261.672 38.38C261.976 38.38 262.242 38.3165 262.468 38.1893C262.695 38.0566 262.872 37.8797 262.999 37.6585C263.126 37.4373 263.19 37.1913 263.19 36.9204V35.7925C263.19 35.5271 263.093 35.3114 262.9 35.1456C262.706 34.9797 262.454 34.8967 262.145 34.8967C261.874 34.8967 261.636 34.9659 261.432 35.1041C261.227 35.2368 261.075 35.4109 260.975 35.6266L260.411 35.3197C260.494 35.1317 260.624 34.9603 260.801 34.8055C260.984 34.6507 261.191 34.5291 261.423 34.4406C261.655 34.3466 261.896 34.2996 262.145 34.2996C262.471 34.2996 262.759 34.3632 263.007 34.4904C263.262 34.6175 263.458 34.7945 263.596 35.0211C263.74 35.2423 263.812 35.4994 263.812 35.7925V38.8445H263.19V37.9571L263.281 38.0483C263.204 38.2142 263.082 38.3662 262.916 38.5044C262.756 38.6371 262.565 38.745 262.344 38.8279C262.128 38.9053 261.89 38.944 261.631 38.944ZM266.71 38.8942C266.312 38.8942 266.005 38.7781 265.79 38.5459C265.574 38.3137 265.466 37.982 265.466 37.5507V35.0211H264.645V34.3991H264.853C265.041 34.3991 265.19 34.3383 265.301 34.2167C265.411 34.0895 265.466 33.9319 265.466 33.7439V33.3707H266.088V34.3991H267.067V35.0211H266.088V37.5507C266.088 37.7 266.111 37.8327 266.155 37.9488C266.199 38.0594 266.274 38.1478 266.379 38.2142C266.489 38.2805 266.636 38.3137 266.818 38.3137C266.862 38.3137 266.915 38.3109 266.976 38.3054C267.037 38.2999 267.089 38.2943 267.133 38.2888V38.8445C267.067 38.8611 266.992 38.8721 266.909 38.8777C266.827 38.8887 266.76 38.8942 266.71 38.8942ZM268.226 38.8445V34.3991H268.848V38.8445H268.226ZM268.226 33.5781V32.6658H268.848V33.5781H268.226ZM270.121 38.8445V34.3991H270.743V35.2617L270.602 35.2285C270.712 34.941 270.892 34.7143 271.141 34.5484C271.395 34.3825 271.688 34.2996 272.02 34.2996C272.335 34.2996 272.617 34.3715 272.866 34.5152C273.12 34.659 273.319 34.858 273.463 35.1124C273.612 35.3612 273.687 35.6432 273.687 35.9583V38.8445H273.065V36.1988C273.065 35.9279 273.015 35.6985 272.916 35.5105C272.822 35.3225 272.686 35.1787 272.509 35.0792C272.338 34.9742 272.139 34.9216 271.912 34.9216C271.686 34.9216 271.484 34.9742 271.307 35.0792C271.13 35.1787 270.992 35.3252 270.892 35.5188C270.793 35.7068 270.743 35.9334 270.743 36.1988V38.8445H270.121ZM276.982 40.6691C276.678 40.6691 276.396 40.6221 276.136 40.5281C275.881 40.4341 275.66 40.3041 275.472 40.1383C275.29 39.9779 275.149 39.7899 275.049 39.5743L275.621 39.2675C275.71 39.4776 275.868 39.66 276.094 39.8148C276.321 39.9696 276.611 40.047 276.965 40.047C277.236 40.047 277.485 39.9945 277.711 39.8895C277.938 39.7844 278.121 39.6296 278.259 39.425C278.397 39.2205 278.466 38.9689 278.466 38.6703V37.6834L278.566 37.7746C278.411 38.0953 278.181 38.3441 277.877 38.521C277.573 38.6924 277.241 38.7781 276.882 38.7781C276.467 38.7781 276.094 38.6786 275.762 38.4796C275.431 38.2805 275.168 38.0124 274.975 37.6751C274.787 37.3323 274.693 36.9535 274.693 36.5389C274.693 36.1187 274.787 35.7399 274.975 35.4027C275.168 35.0654 275.428 34.7972 275.754 34.5982C276.086 34.3991 276.462 34.2996 276.882 34.2996C277.241 34.2996 277.568 34.3825 277.861 34.5484C278.159 34.7143 278.394 34.9382 278.566 35.2202L278.466 35.3944V34.3991H279.088V38.6703C279.088 39.0518 278.997 39.3919 278.814 39.6904C278.638 39.9945 278.389 40.2323 278.068 40.4037C277.753 40.5806 277.391 40.6691 276.982 40.6691ZM276.915 38.1561C277.203 38.1561 277.463 38.0842 277.695 37.9405C277.927 37.7912 278.112 37.5949 278.251 37.3516C278.394 37.1028 278.466 36.8319 278.466 36.5389C278.466 36.2458 278.394 35.9777 278.251 35.7344C278.112 35.4856 277.927 35.2893 277.695 35.1456C277.463 34.9963 277.203 34.9216 276.915 34.9216C276.622 34.9216 276.357 34.9963 276.119 35.1456C275.881 35.2893 275.693 35.4828 275.555 35.7261C275.422 35.9694 275.356 36.2403 275.356 36.5389C275.356 36.8319 275.422 37.1028 275.555 37.3516C275.693 37.5949 275.879 37.7912 276.111 37.9405C276.349 38.0842 276.617 38.1561 276.915 38.1561Z" fill="#141414"></path><path d="M308.624 24.5761C308.624 23.8541 308.559 23.1599 308.439 22.4934H298.849V26.4366H304.329C304.088 27.7047 303.366 28.7784 302.283 29.5004V32.0643H305.588C307.513 30.2871 308.624 27.6769 308.624 24.5761Z" fill="#4285F4"></path><path d="M298.849 34.5256C301.598 34.5256 303.903 33.6185 305.588 32.0635L302.283 29.4995C301.376 30.1104 300.219 30.4807 298.849 30.4807C296.202 30.4807 293.953 28.6942 293.148 26.2876H289.76V28.9164C291.435 32.2393 294.869 34.5256 298.849 34.5256Z" fill="#34A853"></path><path d="M293.147 26.2781C292.943 25.6672 292.823 25.0193 292.823 24.3436C292.823 23.6679 292.943 23.0199 293.147 22.409V19.7803H289.759C289.065 21.1502 288.667 22.696 288.667 24.3436C288.667 25.9912 289.065 27.537 289.759 28.9069L292.397 26.852L293.147 26.2781Z" fill="#FBBC05"></path><path d="M298.849 18.216C300.349 18.216 301.682 18.7343 302.746 19.734L305.662 16.8183C303.894 15.1707 301.598 14.1617 298.849 14.1617C294.869 14.1617 291.435 16.448 289.76 19.7803L293.148 22.409C293.953 20.0024 296.202 18.216 298.849 18.216Z" fill="#EA4335"></path></svg>